{
 "accessors": [
  {
   "componentType": 5126,
   "type": "VEC3",
   "count": 36,
   "max": [
    31.490949630737305,
    -2741.743408203125,
    1239.94091796875
   ],
   "min": [
    -32.787208557128906,
    -3331.35009765625,
    304.1126403808594
   ],
   "bufferView": 0
  },
  {
   "componentType": 5126,
   "type": "VEC3",
   "count": 36,
   "bufferView": 1
  },
  {
   "componentType": 5126,
   "type": "VEC2",
   "count": 36,
   "bufferView": 2
  },
  {
   "componentType": 5121,
   "type": "SCALAR",
   "count": 78,
   "bufferView": 3
  },
  {
   "componentType": 5126,
   "type": "VEC3",
   "count": 3080,
   "max": [
    -384.7462463378906,
    -154.87367248535156,
    -352.6585388183594
   ],
   "min": [
    -571.0438232421875,
    -485.2137145996094,
    -736.3800659179688
   ],
   "bufferView": 4
  },
  {
   "componentType": 5126,
   "type": "VEC3",
   "count": 3080,
   "bufferView": 5
  },
  {
   "componentType": 5126,
   "type": "VEC2",
   "count": 3080,
   "bufferView": 6
  },
  {
   "componentType": 5123,
   "type": "SCALAR",
   "count": 6201,
   "bufferView": 7
  },
  {
   "componentType": 5126,
   "type": "VEC3",
   "count": 3067,
   "max": [
    569.951904296875,
    -154.87367248535156,
    -352.4382019042969
   ],
   "min": [
    380.6691589355469,
    -485.2137145996094,
    -736.3800659179688
   ],
   "bufferView": 8
  },
  {
   "componentType": 5126,
   "type": "VEC3",
   "count": 3067,
   "bufferView": 9
  },
  {
   "componentType": 5126,
   "type": "VEC2",
   "count": 3067,
   "bufferView": 10
  },
  {
   "componentType": 5123,
   "type": "SCALAR",
   "count": 6201,
   "bufferView": 11
  },
  {
   "componentType": 5126,
   "type": "VEC3",
   "count": 197,
   "max": [
    43.87907028198242,
    2041.32080078125,
    -628.5654296875
   ],
   "min": [
    13.787919998168945,
    1939.5345458984375,
    -731.6787109375
   ],
   "bufferView": 12
  },
  {
   "componentType": 5126,
   "type": "VEC3",
   "count": 197,
   "bufferView": 13
  },
  {
   "componentType": 5126,
   "type": "VEC2",
   "count": 197,
   "bufferView": 14
  },
  {
   "componentType": 5121,
   "type": "SCALAR",
   "count": 756,
   "bufferView": 15
  },
  {
   "componentType": 5126,
   "type": "VEC3",
   "count": 197,
   "max": [
    43.87907028198242,
    2041.32080078125,
    -628.5654296875
   ],
   "min": [
    13.787919998168945,
    1939.5345458984375,
    -731.6787109375
   ],
   "bufferView": 16
  },
  {
   "componentType": 5126,
   "type": "VEC3",
   "count": 197,
   "bufferView": 17
  },
  {
   "componentType": 5126,
   "type": "VEC2",
   "count": 197,
   "bufferView": 18
  },
  {
   "componentType": 5121,
   "type": "SCALAR",
   "count": 756,
   "bufferView": 19
  },
  {
   "componentType": 5126,
   "type": "VEC3",
   "count": 4,
   "max": [
    1185.7838134765625,
    63.766780853271484,
    -474.5263366699219
   ],
   "min": [
    1183.619384765625,
    63.766780853271484,
    -478.3140869140625
   ],
   "bufferView": 20
  },
  {
   "componentType": 5126,
   "type": "VEC3",
   "count": 4,
   "bufferView": 21
  },
  {
   "componentType": 5126,
   "type": "VEC2",
   "count": 4,
   "bufferView": 22
  },
  {
   "componentType": 5121,
   "type": "SCALAR",
   "count": 6,
   "bufferView": 23
  },
  {
   "componentType": 5126,
   "type": "VEC3",
   "count": 4,
   "max": [
    1185.7838134765625,
    63.766780853271484,
    -474.5263366699219
   ],
   "min": [
    1183.619384765625,
    63.766780853271484,
    -478.3140869140625
   ],
   "bufferView": 24
  },
  {
   "componentType": 5126,
   "type": "VEC3",
   "count": 4,
   "bufferView": 25
  },
  {
   "componentType": 5126,
   "type": "VEC2",
   "count": 4,
   "bufferView": 26
  },
  {
   "componentType": 5121,
   "type": "SCALAR",
   "count": 6,
   "bufferView": 27
  },
  {
   "componentType": 5126,
   "type": "VEC3",
   "count": 4,
   "max": [
    1185.7838134765625,
    63.766780853271484,
    -474.5263366699219
   ],
   "min": [
    1183.619384765625,
    63.766780853271484,
    -478.3140869140625
   ],
   "bufferView": 28
  },
  {
   "componentType": 5126,
   "type": "VEC3",
   "count": 4,
   "bufferView": 29
  },
  {
   "componentType": 5126,
   "type": "VEC2",
   "count": 4,
   "bufferView": 30
  },
  {
   "componentType": 5121,
   "type": "SCALAR",
   "count": 6,
   "bufferView": 31
  },
  {
   "componentType": 5126,
   "type": "VEC3",
   "count": 4,
   "max": [
    1185.7838134765625,
    63.766780853271484,
    -474.5263366699219
   ],
   "min": [
    1183.619384765625,
    63.766780853271484,
    -478.3140869140625
   ],
   "bufferView": 32
  },
  {
   "componentType": 5126,
   "type": "VEC3",
   "count": 4,
   "bufferView": 33
  },
  {
   "componentType": 5126,
   "type": "VEC2",
   "count": 4,
   "bufferView": 34
  },
  {
   "componentType": 5121,
   "type": "SCALAR",
   "count": 6,
   "bufferView": 35
  },
  {
   "componentType": 5126,
   "type": "VEC3",
   "count": 2289,
   "max": [
    71.61370086669922,
    2071.84814453125,
    -406.2877502441406
   ],
   "min": [
    -71.24862670898438,
    1944.221435546875,
    -688.7383422851562
   ],
   "bufferView": 36
  },
  {
   "componentType": 5126,
   "type": "VEC3",
   "count": 2289,
   "bufferView": 37
  },
  {
   "componentType": 5126,
   "type": "VEC2",
   "count": 2289,
   "bufferView": 38
  },
  {
   "componentType": 5123,
   "type": "SCALAR",
   "count": 3156,
   "bufferView": 39
  },
  {
   "componentType": 5126,
   "type": "VEC3",
   "count": 33850,
   "max": [
    3257.248291015625,
    2471.784912109375,
    1453.775146484375
   ],
   "min": [
    -3259.286865234375,
    -3413.414794921875,
    -667.8336181640625
   ],
   "bufferView": 40
  },
  {
   "componentType": 5126,
   "type": "VEC3",
   "count": 33850,
   "bufferView": 41
  },
  {
   "componentType": 5126,
   "type": "VEC2",
   "count": 33850,
   "bufferView": 42
  },
  {
   "componentType": 5121,
   "type": "SCALAR",
   "count": 33,
   "bufferView": 43
  },
  {
   "componentType": 5123,
   "type": "SCALAR",
   "count": 46134,
   "bufferView": 44
  },
  {
   "componentType": 5123,
   "type": "SCALAR",
   "count": 10956,
   "bufferView": 45
  },
  {
   "componentType": 5123,
   "type": "SCALAR",
   "count": 20088,
   "bufferView": 46
  },
  {
   "componentType": 5123,
   "type": "SCALAR",
   "count": 6696,
   "bufferView": 47
  },
  {
   "componentType": 5123,
   "type": "SCALAR",
   "count": 10080,
   "bufferView": 48
  },
  {
   "componentType": 5123,
   "type": "SCALAR",
   "count": 10428,
   "bufferView": 49
  },
  {
   "componentType": 5123,
   "type": "SCALAR",
   "count": 7680,
   "bufferView": 50
  }
 ],
 "asset": {
  "version": "2.0",
  "generator": "clara.io"
 },
 "bufferViews": [
  {
   "buffer": 0,
   "byteOffset": 0,
   "byteLength": 432,
   "target": 34962,
   "byteStride": 12
  },
  {
   "buffer": 0,
   "byteOffset": 432,
   "byteLength": 432,
   "target": 34962,
   "byteStride": 12
  },
  {
   "buffer": 0,
   "byteOffset": 864,
   "byteLength": 288,
   "target": 34962,
   "byteStride": 8
  },
  {
   "buffer": 0,
   "byteOffset": 1152,
   "byteLength": 78,
   "target": 34963
  },
  {
   "buffer": 0,
   "byteOffset": 1232,
   "byteLength": 36960,
   "target": 34962,
   "byteStride": 12
  },
  {
   "buffer": 0,
   "byteOffset": 38192,
   "byteLength": 36960,
   "target": 34962,
   "byteStride": 12
  },
  {
   "buffer": 0,
   "byteOffset": 75152,
   "byteLength": 24640,
   "target": 34962,
   "byteStride": 8
  },
  {
   "buffer": 0,
   "byteOffset": 99792,
   "byteLength": 12402,
   "target": 34963
  },
  {
   "buffer": 0,
   "byteOffset": 112196,
   "byteLength": 36804,
   "target": 34962,
   "byteStride": 12
  },
  {
   "buffer": 0,
   "byteOffset": 149000,
   "byteLength": 36804,
   "target": 34962,
   "byteStride": 12
  },
  {
   "buffer": 0,
   "byteOffset": 185804,
   "byteLength": 24536,
   "target": 34962,
   "byteStride": 8
  },
  {
   "buffer": 0,
   "byteOffset": 210340,
   "byteLength": 12402,
   "target": 34963
  },
  {
   "buffer": 0,
   "byteOffset": 222744,
   "byteLength": 2364,
   "target": 34962,
   "byteStride": 12
  },
  {
   "buffer": 0,
   "byteOffset": 225108,
   "byteLength": 2364,
   "target": 34962,
   "byteStride": 12
  },
  {
   "buffer": 0,
   "byteOffset": 227472,
   "byteLength": 1576,
   "target": 34962,
   "byteStride": 8
  },
  {
   "buffer": 0,
   "byteOffset": 229048,
   "byteLength": 756,
   "target": 34963
  },
  {
   "buffer": 0,
   "byteOffset": 229804,
   "byteLength": 2364,
   "target": 34962,
   "byteStride": 12
  },
  {
   "buffer": 0,
   "byteOffset": 232168,
   "byteLength": 2364,
   "target": 34962,
   "byteStride": 12
  },
  {
   "buffer": 0,
   "byteOffset": 234532,
   "byteLength": 1576,
   "target": 34962,
   "byteStride": 8
  },
  {
   "buffer": 0,
   "byteOffset": 236108,
   "byteLength": 756,
   "target": 34963
  },
  {
   "buffer": 0,
   "byteOffset": 236864,
   "byteLength": 48,
   "target": 34962,
   "byteStride": 12
  },
  {
   "buffer": 0,
   "byteOffset": 236912,
   "byteLength": 48,
   "target": 34962,
   "byteStride": 12
  },
  {
   "buffer": 0,
   "byteOffset": 236960,
   "byteLength": 32,
   "target": 34962,
   "byteStride": 8
  },
  {
   "buffer": 0,
   "byteOffset": 236992,
   "byteLength": 6,
   "target": 34963
  },
  {
   "buffer": 0,
   "byteOffset": 237000,
   "byteLength": 48,
   "target": 34962,
   "byteStride": 12
  },
  {
   "buffer": 0,
   "byteOffset": 237048,
   "byteLength": 48,
   "target": 34962,
   "byteStride": 12
  },
  {
   "buffer": 0,
   "byteOffset": 237096,
   "byteLength": 32,
   "target": 34962,
   "byteStride": 8
  },
  {
   "buffer": 0,
   "byteOffset": 237128,
   "byteLength": 6,
   "target": 34963
  },
  {
   "buffer": 0,
   "byteOffset": 237136,
   "byteLength": 48,
   "target": 34962,
   "byteStride": 12
  },
  {
   "buffer": 0,
   "byteOffset": 237184,
   "byteLength": 48,
   "target": 34962,
   "byteStride": 12
  },
  {
   "buffer": 0,
   "byteOffset": 237232,
   "byteLength": 32,
   "target": 34962,
   "byteStride": 8
  },
  {
   "buffer": 0,
   "byteOffset": 237264,
   "byteLength": 6,
   "target": 34963
  },
  {
   "buffer": 0,
   "byteOffset": 237272,
   "byteLength": 48,
   "target": 34962,
   "byteStride": 12
  },
  {
   "buffer": 0,
   "byteOffset": 237320,
   "byteLength": 48,
   "target": 34962,
   "byteStride": 12
  },
  {
   "buffer": 0,
   "byteOffset": 237368,
   "byteLength": 32,
   "target": 34962,
   "byteStride": 8
  },
  {
   "buffer": 0,
   "byteOffset": 237400,
   "byteLength": 6,
   "target": 34963
  },
  {
   "buffer": 0,
   "byteOffset": 237408,
   "byteLength": 27468,
   "target": 34962,
   "byteStride": 12
  },
  {
   "buffer": 0,
   "byteOffset": 264876,
   "byteLength": 27468,
   "target": 34962,
   "byteStride": 12
  },
  {
   "buffer": 0,
   "byteOffset": 292344,
   "byteLength": 18312,
   "target": 34962,
   "byteStride": 8
  },
  {
   "buffer": 0,
   "byteOffset": 310656,
   "byteLength": 6312,
   "target": 34963
  },
  {
   "buffer": 0,
   "byteOffset": 316968,
   "byteLength": 406200,
   "target": 34962,
   "byteStride": 12
  },
  {
   "buffer": 0,
   "byteOffset": 723168,
   "byteLength": 406200,
   "target": 34962,
   "byteStride": 12
  },
  {
   "buffer": 0,
   "byteOffset": 1129368,
   "byteLength": 270800,
   "target": 34962,
   "byteStride": 8
  },
  {
   "buffer": 0,
   "byteOffset": 1400168,
   "byteLength": 33,
   "target": 34963
  },
  {
   "buffer": 0,
   "byteOffset": 1400204,
   "byteLength": 92268,
   "target": 34963
  },
  {
   "buffer": 0,
   "byteOffset": 1492472,
   "byteLength": 21912,
   "target": 34963
  },
  {
   "buffer": 0,
   "byteOffset": 1514384,
   "byteLength": 40176,
   "target": 34963
  },
  {
   "buffer": 0,
   "byteOffset": 1554560,
   "byteLength": 13392,
   "target": 34963
  },
  {
   "buffer": 0,
   "byteOffset": 1567952,
   "byteLength": 20160,
   "target": 34963
  },
  {
   "buffer": 0,
   "byteOffset": 1588112,
   "byteLength": 20856,
   "target": 34963
  },
  {
   "buffer": 0,
   "byteOffset": 1608968,
   "byteLength": 15360,
   "target": 34963
  }
 ],
 "buffers": [
  {
   "byteLength": 1624328,
   "uri": "data:application/octet-stream;base64,"
  }
 ],
 "materials": [
  {
   "name": "b737_800_2_t",
   "pbrMetallicRoughness": {
    "baseColorFactor": [
     0.6,
     0.6,
     0.6,
     1
    ],
    "roughnessFactor": 0.1961,
    "metallicFactor": 0
   }
  },
  {
   "name": "black",
   "pbrMetallicRoughness": {
    "baseColorFactor": [
     0.164706,
     0.164706,
     0.164706,
     1
    ],
    "roughnessFactor": 0.1961,
    "metallicFactor": 0
   }
  },
  {
   "name": "black1",
   "pbrMetallicRoughness": {
    "baseColorFactor": [
     0.164706,
     0.164706,
     0.164706,
     1
    ],
    "roughnessFactor": 0.1961,
    "metallicFactor": 0
   }
  },
  {
   "name": "a380_010",
   "pbrMetallicRoughness": {
    "baseColorFactor": [
     0.5333333333333333,
     0.7254901960784313,
     0.807843137254902,
     1
    ],
    "roughnessFactor": 0.0631,
    "metallicFactor": 0
   }
  },
  {
   "name": "a380_mw",
   "pbrMetallicRoughness": {
    "baseColorFactor": [
     0.5333333333333333,
     0.7254901960784313,
     0.807843137254902,
     1
    ],
    "roughnessFactor": 0.0631,
    "metallicFactor": 0
   }
  },
  {
   "name": "a380_l_",
   "pbrMetallicRoughness": {
    "roughnessFactor": 0.1961,
    "metallicFactor": 0
   }
  },
  {
   "name": "a380_r",
   "pbrMetallicRoughness": {
    "roughnessFactor": 0.1961,
    "metallicFactor": 0
   }
  },
  {
   "name": "a380_part1",
   "pbrMetallicRoughness": {
    "baseColorFactor": [
     0.6078431372549019,
     0.6078431372549019,
     0.6078431372549019,
     1
    ],
    "roughnessFactor": 0.0705,
    "metallicFactor": 0
   }
  },
  {
   "name": "a380_part2",
   "pbrMetallicRoughness": {
    "baseColorFactor": [
     0.1568627450980392,
     0.1568627450980392,
     0.1568627450980392,
     1
    ],
    "roughnessFactor": 0.0631,
    "metallicFactor": 0
   }
  },
  {
   "name": "a380_part3",
   "pbrMetallicRoughness": {
    "roughnessFactor": 0.1961,
    "metallicFactor": 0
   }
  }
 ],
 "meshes": [
  {
   "primitives": [
    {
     "indices": 3,
     "material": 3,
     "mode": 4,
     "attributes": {
      "POSITION": 0,
      "NORMAL": 1,
      "TEXCOORD_0": 2
     }
    }
   ]
  },
  {
   "primitives": [
    {
     "indices": 7,
     "material": 1,
     "mode": 4,
     "attributes": {
      "POSITION": 4,
      "NORMAL": 5,
      "TEXCOORD_0": 6
     }
    }
   ]
  },
  {
   "primitives": [
    {
     "indices": 11,
     "material": 1,
     "mode": 4,
     "attributes": {
      "POSITION": 8,
      "NORMAL": 9,
      "TEXCOORD_0": 10
     }
    }
   ]
  },
  {
   "primitives": [
    {
     "indices": 15,
     "material": 1,
     "mode": 4,
     "attributes": {
      "POSITION": 12,
      "NORMAL": 13,
      "TEXCOORD_0": 14
     }
    }
   ]
  },
  {
   "primitives": [
    {
     "indices": 19,
     "material": 1,
     "mode": 4,
     "attributes": {
      "POSITION": 16,
      "NORMAL": 17,
      "TEXCOORD_0": 18
     }
    }
   ]
  },
  {
   "primitives": [
    {
     "indices": 23,
     "material": 1,
     "mode": 4,
     "attributes": {
      "POSITION": 20,
      "NORMAL": 21,
      "TEXCOORD_0": 22
     }
    }
   ]
  },
  {
   "primitives": [
    {
     "indices": 27,
     "material": 1,
     "mode": 4,
     "attributes": {
      "POSITION": 24,
      "NORMAL": 25,
      "TEXCOORD_0": 26
     }
    }
   ]
  },
  {
   "primitives": [
    {
     "indices": 31,
     "material": 1,
     "mode": 4,
     "attributes": {
      "POSITION": 28,
      "NORMAL": 29,
      "TEXCOORD_0": 30
     }
    }
   ]
  },
  {
   "primitives": [
    {
     "indices": 35,
     "material": 1,
     "mode": 4,
     "attributes": {
      "POSITION": 32,
      "NORMAL": 33,
      "TEXCOORD_0": 34
     }
    }
   ]
  },
  {
   "primitives": [
    {
     "indices": 39,
     "material": 0,
     "mode": 4,
     "attributes": {
      "POSITION": 36,
      "NORMAL": 37,
      "TEXCOORD_0": 38
     }
    }
   ]
  },
  {
   "primitives": [
    {
     "indices": 43,
     "material": 2,
     "mode": 4,
     "attributes": {
      "POSITION": 40,
      "NORMAL": 41,
      "TEXCOORD_0": 42
     }
    },
    {
     "indices": 44,
     "material": 3,
     "mode": 4,
     "attributes": {
      "POSITION": 40,
      "NORMAL": 41,
      "TEXCOORD_0": 42
     }
    },
    {
     "indices": 45,
     "material": 4,
     "mode": 4,
     "attributes": {
      "POSITION": 40,
      "NORMAL": 41,
      "TEXCOORD_0": 42
     }
    },
    {
     "indices": 46,
     "material": 5,
     "mode": 4,
     "attributes": {
      "POSITION": 40,
      "NORMAL": 41,
      "TEXCOORD_0": 42
     }
    },
    {
     "indices": 47,
     "material": 6,
     "mode": 4,
     "attributes": {
      "POSITION": 40,
      "NORMAL": 41,
      "TEXCOORD_0": 42
     }
    },
    {
     "indices": 48,
     "material": 7,
     "mode": 4,
     "attributes": {
      "POSITION": 40,
      "NORMAL": 41,
      "TEXCOORD_0": 42
     }
    },
    {
     "indices": 49,
     "material": 8,
     "mode": 4,
     "attributes": {
      "POSITION": 40,
      "NORMAL": 41,
      "TEXCOORD_0": 42
     }
    },
    {
     "indices": 50,
     "material": 9,
     "mode": 4,
     "attributes": {
      "POSITION": 40,
      "NORMAL": 41,
      "TEXCOORD_0": 42
     }
    }
   ]
  }
 ],
 "nodes": [
  {
   "name": "LightPreset",
   "translation": [
    475.310546875,
    -546.36669921875,
    316.6902160644531
   ]
  },
  {
   "name": "rudder01",
   "rotation": [
    -0.7049295220394087,
    0,
    0,
    0.7092773632423517
   ],
   "mesh": 0
  },
  {
   "name": "gear_l01",
   "rotation": [
    -0.7049295220394087,
    0,
    0,
    0.7092773632423517
   ],
   "mesh": 1
  },
  {
   "name": "gear_r01",
   "rotation": [
    -0.7049295220394087,
    0,
    0,
    0.7092773632423517
   ],
   "mesh": 2
  },
  {
   "name": "wheel01",
   "rotation": [
    -0.7049295220394087,
    0,
    0,
    0.7092773632423517
   ],
   "mesh": 3
  },
  {
   "name": "wheel01 Copy",
   "rotation": [
    -0.7049295220394087,
    0,
    0,
    0.7092773632423517
   ],
   "scale": [
    -1,
    1.000000009106383,
    1.000000009106383
   ],
   "mesh": 4
  },
  {
   "name": "static_pro01",
   "rotation": [
    -0.7049295220394087,
    0,
    0,
    0.7092773632423517
   ],
   "mesh": 5
  },
  {
   "name": "static_p01",
   "rotation": [
    -0.7049295220394087,
    0,
    0,
    0.7092773632423517
   ],
   "mesh": 6
  },
  {
   "name": "moving_pro01",
   "rotation": [
    -0.7049295220394087,
    0,
    0,
    0.7092773632423517
   ],
   "mesh": 7
  },
  {
   "name": "moving_p01",
   "rotation": [
    -0.7049295220394087,
    0,
    0,
    0.7092773632423517
   ],
   "mesh": 8
  },
  {
   "name": "misc_a01",
   "rotation": [
    -0.7049295220394087,
    0,
    0,
    0.7092773632423517
   ],
   "mesh": 9
  },
  {
   "name": "chassis01",
   "rotation": [
    -0.7049295220394087,
    0,
    0,
    0.7092773632423517
   ],
   "mesh": 10
  }
 ],
 "scene": 0,
 "scenes": [
  {
   "nodes": [
    0,
    1,
    2,
    3,
    4,
    5,
    6,
    7,
    8,
    9,
    10,
    11
   ]
  }
 ]
}